{"asset":{"version":"2.0","generator":"THREE.GLTFExporter"},"scenes":[{"nodes":[0],"name":"AuxScene"}],"scene":0,"nodes":[{"mesh":0}],"bufferViews":[{"buffer":0,"byteOffset":0,"byteLength":35172,"target":34962,"byteStride":12},{"buffer":0,"byteOffset":35172,"byteLength":35172,"target":34962,"byteStride":12}],"buffers":[{"byteLength":70344,"uri":"data:application/octet-stream;base64,"}],"accessors":[{"bufferView":0,"componentType":5126,"count":2931,"max":[89.21100616455078,25.066001892089844,283.6800231933594],"min":[-89.28899383544922,-5.133999824523926,-31.6200008392334],"type":"VEC3"},{"bufferView":1,"componentType":5126,"count":2931,"max":[0.019367413595318794,1,0.21292844414710999],"min":[-0.40613892674446106,0.9138113260269165,-0.164398193359375],"type":"VEC3"}],"materials":[{"pbrMetallicRoughness":{"baseColorFactor":[0.5019607843137255,0.5019607843137255,0.5019607843137255,1],"metallicFactor":0,"roughnessFactor":1}}],"meshes":[{"primitives":[{"mode":4,"attributes":{"POSITION":0,"NORMAL":1},"material":0}]}]}